REM DIRINDEX 1\5,1\2\6,1\2\7,1\3\8,1\3\9,1\4\10,1\4\11,1\4\12
REM DIRNAME cjc026,folder01,folder02,folder03,folder04,folder05,folder06,folder07,folder08,folder09,folder10,folder11
TITLE ""
FILE "EJE_DB3000_5th_4B_49.mp3" MP3
  TRACK 01 AUDIO
    TITLE "0:"
    INDEX 01 00:00:00
  TRACK 02 AUDIO
    TITLE "10:cjc026_10077"
    INDEX 01 00:00:08
  TRACK 03 AUDIO
    TITLE "0:"
    INDEX 01 00:03:12
  TRACK 04 AUDIO
    TITLE "11:cjc026_10078"
    INDEX 01 00:03:47
  TRACK 05 AUDIO
    TITLE "0:"
    INDEX 01 00:05:46
  TRACK 06 AUDIO
    TITLE "12:cjc026_10079"
    INDEX 01 00:06:09
  TRACK 07 AUDIO
    TITLE "0:"
    INDEX 01 00:09:10
  TRACK 08 AUDIO
    TITLE "10:cjc026_10080"
    INDEX 01 00:09:48
  TRACK 09 AUDIO
    TITLE "0:"
    INDEX 01 00:11:44
  TRACK 10 AUDIO
    TITLE "11:cjc026_10081"
    INDEX 01 00:12:09
  TRACK 11 AUDIO
    TITLE "0:"
    INDEX 01 00:13:72
  TRACK 12 AUDIO
    TITLE "12:cjc026_10082"
    INDEX 01 00:14:35
  TRACK 13 AUDIO
    TITLE "0:"
    INDEX 01 00:16:33
  TRACK 14 AUDIO
    TITLE "10:cjc026_10083"
    INDEX 01 00:16:71
  TRACK 15 AUDIO
    TITLE "0:"
    INDEX 01 00:18:27
  TRACK 16 AUDIO
    TITLE "11:cjc026_10084"
    INDEX 01 00:18:67
  TRACK 17 AUDIO
    TITLE "0:"
    INDEX 01 00:20:06
  TRACK 18 AUDIO
    TITLE "12:cjc026_10085"
    INDEX 01 00:20:44
  TRACK 19 AUDIO
    TITLE "0:"
    INDEX 01 00:21:74
  TRACK 20 AUDIO
    TITLE "10:cjc026_10086"
    INDEX 01 00:22:37
  TRACK 21 AUDIO
    TITLE "0:"
    INDEX 01 00:24:14
  TRACK 22 AUDIO
    TITLE "11:cjc026_10087"
    INDEX 01 00:24:49
  TRACK 23 AUDIO
    TITLE "0:"
    INDEX 01 00:26:56
  TRACK 24 AUDIO
    TITLE "12:cjc026_10088"
    INDEX 01 00:27:16
  TRACK 25 AUDIO
    TITLE "0:"
    INDEX 01 00:28:65
  TRACK 26 AUDIO
    TITLE "10:cjc026_10089"
    INDEX 01 00:29:25
  TRACK 27 AUDIO
    TITLE "0:"
    INDEX 01 00:32:38
  TRACK 28 AUDIO
    TITLE "11:cjc026_10090"
    INDEX 01 00:32:73
  TRACK 29 AUDIO
    TITLE "0:"
    INDEX 01 00:34:36
  TRACK 30 AUDIO
    TITLE "12:cjc026_10091"
    INDEX 01 00:34:71
  TRACK 31 AUDIO
    TITLE "0:"
    INDEX 01 00:38:06
  TRACK 32 AUDIO
    TITLE "10:cjc026_10092"
    INDEX 01 00:38:44
  TRACK 33 AUDIO
    TITLE "0:"
    INDEX 01 00:40:13
  TRACK 34 AUDIO
    TITLE "11:cjc026_10093"
    INDEX 01 00:40:53
  TRACK 35 AUDIO
    TITLE "0:"
    INDEX 01 00:42:63
  TRACK 36 AUDIO
    TITLE "12:cjc026_10094"
    INDEX 01 00:43:23
  TRACK 37 AUDIO
    TITLE "0:"
    INDEX 01 00:44:66
  TRACK 38 AUDIO
    TITLE "10:cjc026_10095"
    INDEX 01 00:45:32
  TRACK 39 AUDIO
    TITLE "0:"
    INDEX 01 00:46:73
  TRACK 40 AUDIO
    TITLE "11:cjc026_10096"
    INDEX 01 00:47:36
  TRACK 41 AUDIO
    TITLE "0:"
    INDEX 01 00:48:55
  TRACK 42 AUDIO
    TITLE "12:cjc026_10097"
    INDEX 01 00:49:21
  TRACK 43 AUDIO
    TITLE "0:"
    INDEX 01 00:50:62
  TRACK 44 AUDIO
    TITLE "10:cjc026_10098"
    INDEX 01 00:51:25
  TRACK 45 AUDIO
    TITLE "0:"
    INDEX 01 00:52:63
  TRACK 46 AUDIO
    TITLE "11:cjc026_10099"
    INDEX 01 00:53:26
  TRACK 47 AUDIO
    TITLE "0:"
    INDEX 01 00:55:03
  TRACK 48 AUDIO
    TITLE "12:cjc026_10100"
    INDEX 01 00:55:41
  TRACK 49 AUDIO
    TITLE "0:"
    INDEX 01 00:57:01
  TRACK 50 AUDIO
    TITLE "10:cjc026_10101"
    INDEX 01 00:57:39
  TRACK 51 AUDIO
    TITLE "0:"
    INDEX 01 00:59:05
  TRACK 52 AUDIO
    TITLE "11:cjc026_10102"
    INDEX 01 00:59:40
  TRACK 53 AUDIO
    TITLE "0:"
    INDEX 01 01:01:06
  TRACK 54 AUDIO
    TITLE "12:cjc026_10103"
    INDEX 01 01:01:42
  TRACK 55 AUDIO
    TITLE "0:"
    INDEX 01 01:03:08
  TRACK 56 AUDIO
    TITLE "10:cjc026_10104"
    INDEX 01 01:03:43
  TRACK 57 AUDIO
    TITLE "0:"
    INDEX 01 01:05:14
  TRACK 58 AUDIO
    TITLE "11:cjc026_10105"
    INDEX 01 01:05:49
  TRACK 59 AUDIO
    TITLE "0:"
    INDEX 01 01:07:61
  TRACK 60 AUDIO
    TITLE "12:cjc026_10106"
    INDEX 01 01:08:21
  TRACK 61 AUDIO
    TITLE "0:"
    INDEX 01 01:09:68
  TRACK 62 AUDIO
    TITLE "10:cjc026_10107"
    INDEX 01 01:10:31
  TRACK 63 AUDIO
    TITLE "0:"
    INDEX 01 01:11:69
  TRACK 64 AUDIO
    TITLE "11:cjc026_10108"
    INDEX 01 01:12:29
  TRACK 65 AUDIO
    TITLE "0:"
    INDEX 01 01:13:62
  TRACK 66 AUDIO
    TITLE "12:cjc026_10109"
    INDEX 01 01:14:22
  TRACK 67 AUDIO
    TITLE "0:"
    INDEX 01 01:15:61
  TRACK 68 AUDIO
    TITLE "10:cjc026_10110"
    INDEX 01 01:16:23
  TRACK 69 AUDIO
    TITLE "0:"
    INDEX 01 01:18:09
  TRACK 70 AUDIO
    TITLE "11:cjc026_10111"
    INDEX 01 01:18:57
  TRACK 71 AUDIO
    TITLE "0:"
    INDEX 01 01:20:31
  TRACK 72 AUDIO
    TITLE "12:cjc026_10112"
    INDEX 01 01:20:69
  TRACK 73 AUDIO
    TITLE "0:"
    INDEX 01 01:22:51
  TRACK 74 AUDIO
    TITLE "10:cjc026_10113"
    INDEX 01 01:23:25
  TRACK 75 AUDIO
    TITLE "0:"
    INDEX 01 01:25:69
  TRACK 76 AUDIO
    TITLE "11:cjc026_10114"
    INDEX 01 01:26:30
  TRACK 77 AUDIO
    TITLE "0:"
    INDEX 01 01:29:18
  TRACK 78 AUDIO
    TITLE "12:cjc026_10115"
    INDEX 01 01:29:56
  TRACK 79 AUDIO
    TITLE "0:"
    INDEX 01 01:32:22
  TRACK 80 AUDIO
    TITLE "10:cjc026_10116"
    INDEX 01 01:32:60
  TRACK 81 AUDIO
    TITLE "0:"
    INDEX 01 01:34:34
  TRACK 82 AUDIO
    TITLE "11:cjc026_10117"
    INDEX 01 01:34:72
  TRACK 83 AUDIO
    TITLE "0:"
    INDEX 01 01:37:42
  TRACK 84 AUDIO
    TITLE "12:cjc026_10118"
    INDEX 01 01:38:02
  TRACK 85 AUDIO
    TITLE "0:"
    INDEX 01 01:39:51
